<svg xmlns="http://www.w3.org/2000/svg" width="1324" height="228" viewBox="0 0 1324 228" xmlns:xlink="http://www.w3.org/1999/xlink">
  <defs>
    <path id="b" d="M138.2115,17.5010002 C138.2115,15.5010002 140.0115,14.1010002 141.6115,14.1010002 C143.4115,14.1010002 145.2115,15.5010002 145.2115,17.5010002 L145.2115,60.3000002 L172.2115,60.3000002 C174.0115,60.3000002 175.6115,61.9000002 175.6115,63.9000002 C175.6115,65.7000002 174.0115,67.3000002 172.2115,67.3000002 L145.2115,67.3000002 L145.2115,126.899 C145.2115,142.099 151.0115,147.699 167.4115,147.699 L172.0115,147.699 C173.8115,147.699 175.4115,149.099 175.4115,151.099 C175.4115,153.099 173.8115,154.699 172.0115,154.699 L167.4115,154.699 C148.4115,154.699 138.2115,146.3 138.2115,126.899 L138.2115,17.5010002 Z M193.2095,151.1 C193.2095,152.9 191.6095,154.7 189.6095,154.7 C187.6095,154.7 186.2095,152.9 186.2095,151.1 L186.2095,4.50100017 C186.2095,2.50100017 187.6095,1.10100017 189.6095,1.10100017 C191.6095,1.10100017 193.2095,2.50100017 193.2095,4.50100017 L193.2095,74.3000002 C197.6095,66.5000002 206.6095,59.1000002 220.0085,59.1000002 C239.6085,59.1000002 256.0085,75.3000002 256.0085,95.1000002 L256.0085,151.099 C256.0085,153.498 254.2085,154.699 252.4085,154.699 C250.8085,154.699 249.0085,153.499 249.0085,151.099 L249.0085,95.1000002 C249.0085,80.4990002 236.2085,66.1000002 220.6095,66.1000002 C207.0095,66.1000002 193.2105,76.9000002 193.2105,95.1000002 L193.2105,151.1 L193.2095,151.1 Z M343.0075,95.1010002 C343.0075,109.701 335.0075,110.1 326.4075,110.1 L279.0085,110.1 L279.0085,119.5 C279.0085,137.699 293.2075,148.899 312.8075,148.899 C329.6075,148.899 332.6075,140.699 336.4075,140.699 C338.2085,140.699 340.0085,142.699 340.0085,144.3 C340.0085,148.1 329.6085,155.9 312.4085,155.9 C288.8085,155.9 272.0095,141.3 272.0095,119.501 L272.0095,94.5010002 C272.0095,75.3020002 288.2085,59.1020002 307.6095,59.1020002 C326.4085,59.1010002 343.0075,74.3010002 343.0075,95.1010002 Z M324.0075,103.1 C333.8075,103.1 336.0075,101.901 336.0075,95.7010002 C336.0075,81.3020002 324.8075,66.1010002 307.6085,66.1010002 C291.4085,66.1010002 279.0085,79.5000002 279.0085,94.5000002 L279.0085,103.1 L324.0075,103.1 Z M396.6045,6.90100017 L396.6045,74.1000002 C401.0045,66.3000002 410.0045,58.9000002 423.2045,58.9000002 C442.8045,58.9000002 459.0045,75.7000002 459.0045,96.2990002 L459.0045,118.099 C459.0045,137.899 442.4045,156.099 423.6055,156.099 C411.2055,156.099 400.4055,148.899 396.2065,140.699 L396.2065,149.499 C396.2065,152.1 393.4055,154.699 390.0065,154.699 C386.4065,154.699 383.6065,152.099 383.6065,149.499 L383.6065,6.90100017 C383.6065,4.10100017 386.4075,2.10100017 390.0065,2.10100017 C393.8045,2.10200017 396.6045,4.10200017 396.6045,6.90100017 Z M446.0035,96.3000002 C446.0035,83.5000002 434.8035,70.9010002 421.0035,70.9010002 C409.0045,70.9010002 396.6045,80.3010002 396.6045,96.3000002 L396.6045,124.3 C396.6045,130.3 407.2045,144.1 421.2045,144.1 C434.6045,144.1 446.0045,131.3 446.0045,118.1 L446.0045,96.3000002 L446.0035,96.3000002 Z M545.4025,95.3000002 C545.4025,110.7 536.8025,111.3 528.0035,111.3 L482.8045,111.3 L482.8045,118.7 C482.8045,134.699 495.6045,144.699 513.2035,144.699 C529.0035,144.699 532.8035,136.699 537.2035,136.699 C540.4025,136.699 542.8035,140.499 542.8035,142.899 C542.8035,147.699 531.4045,156.099 512.8035,156.099 C487.6045,156.099 469.8045,140.899 469.8045,118.099 L469.8045,95.7000002 C469.8045,75.7000002 487.0045,58.9000002 508.0035,58.9000002 C527.8025,58.9000002 545.4025,74.1010002 545.4025,95.3000002 Z M522.8025,101.7 C530.8025,101.7 532.8025,100.5 532.8025,94.9000002 C532.8025,82.1000002 522.6025,69.7000002 507.8035,69.7000002 C494.0035,69.7000002 482.8035,80.7000002 482.8035,94.1000002 L482.8035,101.7 L522.8025,101.7 Z M603.6015,130.899 C603.6015,104.299 554.2025,119.299 554.2025,86.1000002 C554.2025,73.3000002 563.0025,58.9000002 585.8025,58.9000002 C599.0025,58.9000002 612.6025,63.9000002 612.6025,68.7000002 C612.6025,70.9000002 610.4025,75.5000002 607.2025,75.5000002 C604.0035,75.5000002 597.8035,69.9000002 586.0035,69.9000002 C571.2035,69.9000002 566.0035,78.9000002 566.0035,85.5000002 C566.0035,108.3 615.6035,93.9000002 615.6035,130.3 C615.6035,146.1 603.8035,156.1 583.4045,156.1 C564.6045,156.1 552.0055,147.7 552.0055,141.7 C552.0055,139.1 554.0055,135.7 556.6055,135.7 C561.0045,135.7 565.0045,145.1 583.0045,145.1 C598.2025,145.1 603.6015,138.499 603.6015,130.899 Z M640.6015,64.9000002 L640.6015,74.1000002 C645.0005,66.3000002 654.2015,58.9000002 667.4005,58.9000002 C687.2005,58.9000002 703.4005,75.7000002 703.4005,96.2990002 L703.4005,118.099 C703.4005,137.899 686.8005,156.099 668.0015,156.099 C655.8015,156.099 645.4015,148.899 641.0015,140.699 L641.0015,196.098 C641.0015,198.498 638.2015,201.098 634.4015,201.098 C630.8015,201.098 628.0015,198.498 628.0015,196.098 L628.0015,64.9000002 C628.0015,62.1000002 630.8025,60.1000002 634.4015,60.1000002 C637.8005,60.1010002 640.6015,62.1010002 640.6015,64.9000002 Z M690.4005,96.3000002 C690.4005,83.5000002 679.0015,70.9010002 665.2015,70.9010002 C653.2015,70.9010002 641.0015,80.3010002 641.0015,96.3000002 L641.0015,124.3 C641.0015,130.3 651.4015,144.1 665.6015,144.1 C678.8015,144.1 690.4015,131.3 690.4015,118.1 L690.4015,96.3000002 L690.4005,96.3000002 Z M789.9995,96.3000002 L789.9995,118.1 C789.9995,137.9 772.1995,156.1 751.8005,156.1 C731.6005,156.1 714.0005,138.1 714.0005,118.1 L714.0005,96.3000002 C714.0005,76.3010002 731.0005,58.9010002 751.8005,58.9010002 C772.1995,58.9000002 789.9995,75.7000002 789.9995,96.3000002 Z M776.9995,96.3000002 C776.9995,83.5000002 765.8005,70.9010002 751.8005,70.9010002 C737.8005,70.9010002 727.0005,83.5010002 727.0005,96.3000002 L727.0005,118.1 C727.0005,131.5 738.0005,144.1 751.8005,144.1 C765.8005,144.1 776.9995,131.5 776.9995,118.1 L776.9995,96.3000002 Z M844.9975,95.3000002 L879.5975,145.9 C879.9965,146.7 880.3975,147.7 880.3975,148.7 C880.3975,151.7 876.7965,155.3 873.3975,155.3 C871.7965,155.3 870.3975,154.5 869.3975,152.901 L835.7975,103.502 L817.3985,119.702 L817.3985,149.501 C817.3985,152.102 814.5985,154.701 810.7975,154.701 C807.1975,154.701 804.3985,152.101 804.3985,149.501 L804.3985,6.90100017 C804.3985,4.10100017 807.1985,2.10100017 810.7975,2.10100017 C814.5985,2.10100017 817.3985,4.10100017 817.3985,6.90100017 L817.3985,104.299 L866.1975,60.9000002 C867.1975,60.3000002 868.1975,59.7000002 869.1975,59.7000002 C872.3975,59.7000002 875.7975,62.5010002 875.7975,65.9000002 C875.7975,67.1000002 875.5985,68.5010002 874.3985,69.5010002 L844.9975,95.3000002 Z M957.7965,95.3000002 C957.7965,110.7 949.1955,111.3 940.3965,111.3 L895.1975,111.3 L895.1975,118.7 C895.1975,134.699 907.9975,144.699 925.5965,144.699 C941.3965,144.699 945.1965,136.699 949.5965,136.699 C952.7965,136.699 955.1965,140.499 955.1965,142.899 C955.1965,147.699 943.7975,156.099 925.1975,156.099 C899.9975,156.099 882.1985,140.899 882.1985,118.099 L882.1985,95.7000002 C882.1985,75.7000002 899.3975,58.9000002 920.3975,58.9000002 C940.1965,58.9000002 957.7965,74.1010002 957.7965,95.3000002 Z M935.1975,101.7 C943.1965,101.7 945.1965,100.5 945.1965,94.9000002 C945.1965,82.1000002 934.9975,69.7000002 920.1975,69.7000002 C906.3975,69.7000002 895.1975,80.7000002 895.1975,94.1000002 L895.1975,101.7 L935.1975,101.7 Z M1019.1935,65.7000002 L1019.1935,73.9000002 C1023.5925,66.1000002 1032.9935,58.7000002 1045.9935,58.7000002 C1065.9925,58.7000002 1081.9925,76.1000002 1081.9925,97.0990002 L1081.9925,117.499 C1081.9925,137.698 1065.5935,156.298 1046.7935,156.298 C1034.5935,156.298 1024.1935,148.899 1019.9935,140.698 L1019.9935,194.498 C1019.9935,197.498 1016.1935,200.497 1011.5935,200.497 C1006.7935,200.497 1003.3945,197.498 1003.3945,194.498 L1003.3945,65.7000002 C1003.3945,62.3010002 1006.7935,59.9000002 1011.3945,59.9000002 C1015.7925,59.9000002 1019.1935,62.3010002 1019.1935,65.7000002 Z M1065.3925,97.1000002 C1065.3925,85.3000002 1054.9925,73.7010002 1042.1925,73.7010002 C1031.1935,73.7010002 1019.9935,82.5010002 1019.9935,97.1000002 L1019.9935,122.9 C1019.9935,128.3 1029.5935,141.3 1042.5935,141.3 C1054.7935,141.3 1065.3935,129.5 1065.3935,117.5 L1065.3935,97.1000002 L1065.3925,97.1000002 Z M1113.3905,24.3010002 C1113.3905,29.3010002 1108.7905,33.9010002 1103.1915,33.9010002 C1097.3915,33.9010002 1092.7915,29.3010002 1092.7915,24.3010002 C1092.7915,19.3010002 1097.3925,14.9010002 1103.1915,14.9010002 C1108.7915,14.9010002 1113.3905,19.3010002 1113.3905,24.3010002 Z M1111.5905,65.7000002 L1111.5905,148.699 C1111.5905,151.699 1107.7905,154.699 1103.1915,154.699 C1098.5905,154.699 1094.9915,151.699 1094.9915,148.699 L1094.9915,65.7000002 C1094.9915,62.3010002 1098.5915,59.9000002 1103.1915,59.9000002 C1107.7915,59.9000002 1111.5905,62.3010002 1111.5905,65.7000002 Z M1122.1885,144.699 L1147.9885,106.7 L1123.1885,70.3010002 C1122.5885,69.5010002 1121.9885,68.3010002 1121.9885,67.1010002 C1121.9885,63.1010002 1128.1885,58.7010002 1132.5895,58.7010002 C1133.7885,58.7010002 1135.7885,59.3010002 1136.9885,61.1010002 L1158.9885,95.5000002 L1181.3875,61.1010002 C1182.3875,59.5010002 1184.3875,58.7010002 1185.7875,58.7010002 C1189.7865,58.7010002 1196.1865,63.1010002 1196.1865,67.1010002 C1196.1865,68.1010002 1195.9865,69.1010002 1195.1865,70.3010002 L1169.9875,106.7 L1195.9865,144.699 C1196.5875,145.499 1196.9865,146.699 1196.9865,148.099 C1196.9865,151.699 1191.1865,156.298 1186.7875,156.298 C1185.1865,156.298 1183.1865,155.498 1182.1865,153.899 L1158.9875,118.5 L1135.9875,153.899 C1134.9875,155.499 1132.9875,156.298 1131.3875,156.298 C1127.5875,156.298 1121.1875,151.899 1121.1875,148.099 C1121.1885,146.899 1121.5885,145.699 1122.1885,144.699 Z M1279.3875,95.5000002 C1279.3875,111.5 1270.5875,112.1 1261.5875,112.1 L1217.7885,112.1 L1217.7885,118.1 C1217.7885,132.9 1229.5885,142.3 1246.1875,142.3 C1261.1875,142.3 1265.3865,134.5 1270.3865,134.5 C1274.3865,134.5 1277.1865,139.1 1277.1865,142.1 C1277.1865,147.3 1264.9875,156.299 1245.5875,156.299 C1219.5875,156.299 1201.1885,140.699 1201.1885,117.5 L1201.1885,96.5000002 C1201.1885,76.1010002 1218.9885,58.7010002 1240.9875,58.7010002 C1261.3885,58.7010002 1279.3875,74.1010002 1279.3875,95.5000002 Z M1254.7885,100.9 C1261.7885,100.9 1263.5885,99.7000002 1263.5885,94.5000002 C1263.5885,82.7000002 1253.9885,71.9000002 1240.7885,71.9000002 C1228.1885,71.9000002 1217.7895,81.5000002 1217.7895,93.7000002 L1217.7895,100.9 L1254.7885,100.9 L1254.7885,100.9 Z M1309.1875,8.50100017 L1309.1875,148.699 C1309.1875,151.699 1305.3875,154.699 1300.7885,154.699 C1295.9885,154.699 1292.5885,151.699 1292.5885,148.699 L1292.5885,8.50100017 C1292.5885,5.10100017 1295.9885,2.70100017 1300.7885,2.70100017 C1305.3875,2.70200017 1309.1875,5.10200017 1309.1875,8.50100017 Z"/>
    <filter id="a" width="200%" height="200%" x="-50%" y="-50%" filterUnits="objectBoundingBox">
      <feOffset dy="11" in="SourceAlpha" result="shadowOffsetOuter1"/>
      <feGaussianBlur stdDeviation="7.5" in="shadowOffsetOuter1" result="shadowBlurOuter1"/>
      <feColorMatrix values="0 0 0 0 0 0 0 0 0 0 0 0 0 0 0 0 0 0 0.5 0" in="shadowBlurOuter1"/>
    </filter>
  </defs>
  <g fill="none" fill-rule="evenodd" transform="translate(0 2)">
    <use fill="black" filter="url(#a)" xlink:href="#b"/>
    <use fill="#FFFFFF" xlink:href="#b"/>
    <path fill="#FFFFFF" d="M87.4115,6.30100017 C87.4115,7.30100017 87.2115,8.10100017 86.6115,8.90100017 L10.8125,157.1 C10.0125,159.1 8.0125,160.1 6.0125,160.1 C3.2125,160.1 0.8125,157.7 0.8125,155.1 C0.8125,154.299 1.0125,153.499 1.4125,152.7 L77.6115,3.30200017 C78.4115,1.50200017 80.0115,0.90200017 81.6115,0.90200017 C84.2105,0.90100017 87.4115,3.10200017 87.4115,6.30100017 Z M127.8115,6.30100017 C127.8115,7.30100017 127.6115,8.10100017 127.0115,8.90100017 L51.2125,157.1 C50.4125,159.1 48.4125,160.1 46.4125,160.1 C43.6125,160.1 41.2125,157.7 41.2125,155.1 C41.2125,154.299 41.4125,153.499 41.8125,152.7 L118.0115,3.30300017 C118.8115,1.50300017 120.4115,0.90300017 122.0115,0.90300017 C124.6105,0.90100017 127.8115,3.10200017 127.8115,6.30100017 Z M372.0065,146.699 C372.0065,151.499 367.8065,155.899 363.0065,155.899 C357.6075,155.899 353.8075,151.499 353.8075,146.699 C353.8075,141.499 357.6075,137.3 363.0065,137.3 C367.8065,137.3 372.0065,141.499 372.0065,146.699 Z M987.1955,79.5000002 C987.1955,84.3010002 982.9955,88.7000002 978.1955,88.7000002 C972.7965,88.7000002 968.9965,84.3010002 968.9965,79.5000002 C968.9965,74.3010002 972.7965,70.1010002 978.1955,70.1010002 C982.9955,70.1010002 987.1955,74.3010002 987.1955,79.5000002 Z M987.1955,146.699 C987.1955,151.499 982.9955,155.899 978.1955,155.899 C972.7965,155.899 968.9965,151.499 968.9965,146.699 C968.9965,141.499 972.7965,137.3 978.1955,137.3 C982.9955,137.3 987.1955,141.499 987.1955,146.699 L987.1955,146.699 L987.1955,146.699 Z" opacity=".597"/>
  </g>
</svg>
